<svg xmlns="http://www.w3.org/2000/svg" id="_圖層_2" viewBox="0 0 346.04 186.26"><defs><style>.cls-1{fill:#fff;}.cls-2{fill:#9fc3d8;}.cls-3{fill:#70c0fc;}</style></defs><g id="_圖層_1-2"><path class="cls-3" d="m6.82,127.16h7.91c3.77,0,6.82-3.05,6.82-6.82v-49.81c0-3.77-3.05-6.82-6.82-6.82h-4.52c-3.77,0-6.82-3.05-6.82-6.82h0c0-3.17,2.19-5.9,5.28-6.64,6.62-1.61,11.81-3.65,16.59-6.41,1.01-.58,2.17-.87,3.33-.87h6.08c3.77,0,6.82,3.05,6.82,6.82v70.55c0,3.77,3.05,6.82,6.82,6.82h5.2c3.77,0,6.82,3.05,6.82,6.82v2.49c0,3.77-3.05,6.82-6.82,6.82H6.82c-3.77,0-6.82-3.05-6.82-6.82v-2.49c0-3.77,3.05-6.82,6.82-6.82Z"/><path class="cls-1" d="m103.53,92.75c-.7,4.3-1.85,8.6-3.6,12.19.9.55,1.95,1.35,3.45,2.25,3.45,2.05,8.15,2.35,13.94,2.35s14.64-.5,20.19-1.3c-.65,1.6-1.6,4.5-1.7,6.1-4.1.25-12.94.6-18.79.6-6.6,0-10.79-.55-14.44-2.65-2.05-1.15-3.85-2.8-4.9-2.8s-2.9,3.4-4.15,6.25l-3.95-5.65c1.2-1.45,2.45-2.7,3.6-3.65,1.95-2.65,3.4-6.25,4.25-9.79h-6.05c1.1-2.95,2.35-6.95,3.5-10.84h-4.35v-5.3h11.54c-1,3.5-2.2,7.5-3.35,10.99h.55l.85-.15,3.4,1.4Zm-7.5-13.59c-.65-2.3-1.95-5.95-2.85-8.7l5.4-1.45c.95,2.7,2.25,6.15,3,8.4l-5.55,1.75Zm22.64,2c-.45,1.2-.85,3.1-.95,4.15-9.94,1.55-11.59,1.9-12.54,2.4-.25-1.2-1.2-3.35-1.95-4.4.8-.4,1.65-1.25,1.65-3.25v-9.54h14.09v9.5h-9.5v2.4l9.2-1.25Zm17.34,20.19h-9.49c3,1.5,6.2,3.3,8.15,4.7l-5.3,2.45c-1.8-1.5-5-3.7-8.05-5.2l2.95-1.95h-9.79l3.85,1.35c-2.5,2.3-6.55,4.65-9.84,6.05-1.05-1-3.15-2.8-4.45-3.6,3.1-.95,6.3-2.3,8.45-3.8h-8.9v-4.35h7.8v-3.05h-6.05v-4.35h6.05v-2.65h5.4v2.65h5.6v-2.65h5.55v2.65h6.15v4.35h-6.15v3.05h8.1v4.35Zm-26.54-27.19v2.25h4.55v-2.25h-4.55Zm7.3,22.84h5.6v-3.05h-5.6v3.05Zm9.49-10.74c-4.55,0-5.6-1.7-5.6-6v-9.69h14.24v9.49h-9.59v.3c0,1.35.2,1.85,1.25,1.85h5.15c.95,0,2.6-.05,3.4-.3.1,1.25.25,2.9.4,4-.8.25-2.3.35-3.65.35h-5.6Zm-.95-12.04v2.25h4.6v-2.25h-4.6Z"/><path class="cls-1" d="m155.75,95.15c-1.55.5-3.05.95-4.6,1.45v12.54c0,2.75-.5,4.25-2,5.2-1.5.95-3.65,1.15-6.9,1.15-.15-1.5-.8-3.95-1.5-5.55,1.8.1,3.5.1,4.1.05.6,0,.85-.2.85-.85v-10.94l-4.6,1.35-1.3-5.75c1.7-.4,3.65-.9,5.9-1.45v-8.54h-5.2v-5.5h5.2v-9.4h5.45v9.4h4.35v5.5h-4.35v7.1c1.3-.35,2.55-.75,3.85-1.1l.75,5.35Zm30.78,14.19h-12.79v6.2h-5.6v-6.2h-12.84v-4.35h12.84v-2.25h-10.89v-4.45h5.4c-.3-1-.65-2.05-1-2.95l3.7-.8h-9.15v-4.45h11.94v-2.25h-9.94v-4.25h9.94v-1.95h-10.54v-11.14h27.58v11.14h-11.44v1.95h10.69v4.25h-10.69v2.25h12.04v4.45h-7.9l3.75.85-1.7,2.9h4.7v4.45h-10.89v2.25h12.79v4.35Zm-21.34-34.88h-3v3.3h3v-3.3Zm1.45,20.09c.55,1.2,1.15,2.7,1.4,3.75h6.6c.55-1.25,1.05-2.6,1.45-3.75h-9.44Zm3-16.79h3.05v-3.3h-3.05v3.3Zm7.55,0h3.15v-3.3h-3.15v3.3Z"/><path class="cls-1" d="m210.42,82.71c-.15,2-.25,4-.5,6h21.44s-.05,1.8-.2,2.6c-.9,13.54-1.95,19.09-4,21.24-1.5,1.65-3.1,2.1-5.35,2.35-1.95.2-5.25.15-8.65,0-.1-1.7-.95-4.2-2.1-5.85,3.4.35,6.9.4,8.4.4,1.1,0,1.75-.1,2.45-.65,1.3-1.1,2.2-5.4,2.9-14.34h-15.74c-1.7,8.35-5.4,16.14-14.39,21.34-.9-1.65-2.75-3.7-4.35-4.95,11.99-6.35,12.94-17.59,13.44-28.13h-12.59v-5.85h21.09c-.8-1.95-2-4.45-3-6.45l5.85-2.2c1.35,2.25,2.85,5.25,3.6,7.15l-3.45,1.5h20.49v5.85h-25.34Z"/><path class="cls-1" d="m286.13,104.34h-11.54c3.9,1.95,8.65,4.7,11.24,6.8l-4.65,4.15c-2.65-2.4-8.25-5.85-12.59-8.1l3.4-2.85h-5.75v11.19h-5.95v-11.19h-8.4l5.85,1.95c-2.9,3.4-7.8,6.5-12.04,8.4-1.15-1.15-3.6-3-5-3.95,4.25-1.4,8.7-3.8,10.99-6.4h-10.89v-4.9h19.49v-3.45h5.95v3.45h19.89v4.9Zm-6.15-6.1c-3.55-1.45-8.5-2.9-14.19-4.3-5.6,2.3-13.04,3.35-22.89,3.9-.45-1.8-1.2-3.65-2.05-4.9,5.75-.15,10.59-.55,14.69-1.25-2.8-.55-5.6-1.05-8.55-1.5,1.3-1.15,2.75-2.55,4.15-4.1h-9.94v-4.65h14.04c1.2-1.5,2.25-2.95,3.15-4.35h-10.84v2.75h-5.5v-7.65h17.74c-.35-.75-.7-1.45-1.05-2.1l6.3-1.25c.65.95,1.35,2.2,1.95,3.35h17.84v7.65h-5.75v-2.75h-18.34l3.6,1.1c-.8,1.05-1.6,2.15-2.55,3.25h9.64c.45-.95.85-2,1.2-3.05l5.8,1.15c-.2.65-.45,1.3-.7,1.9h7.85v4.65h-10.19c-1.1,1.7-2.4,3.15-3.8,4.3,5.4,1.3,10.29,2.7,14.04,4l-5.65,3.85Zm-22.54-12.14c-.4.45-.8.85-1.25,1.25,2.75.45,5.55,1,8.2,1.55,1.45-.8,2.75-1.7,3.85-2.8h-10.79Z"/><path class="cls-2" d="m252.91,0H45.08c-9.7,0-17.56,7.86-17.56,17.56v13.39c0,1.41,1.14,2.55,2.55,2.55h0c1.35,0,2.45-1.1,2.45-2.45v-13.48c0-6.94,5.62-12.56,12.56-12.56h206.62c49.49,0,90.21,40.24,89.33,89.72s-40.05,86.55-88.12,86.55H45.08c-6.94,0-12.56-5.62-12.56-12.56v-13.45c0-1.37-1.11-2.48-2.48-2.48h0c-1.39,0-2.52,1.13-2.52,2.52v13.42c0,9.7,7.86,17.56,17.56,17.56h206.55c52.29,0,95.32-42.52,94.4-94.8C345.13,40.88,303.71,0,252.91,0Z"/></g></svg>