<svg xmlns="http://www.w3.org/2000/svg" id="_圖層_2" viewBox="0 0 349.18 186.26"><defs><style>.cls-1{fill:#fff;}.cls-2{fill:#9fc3d8;}.cls-3{fill:#70c0fc;}</style></defs><g id="_圖層_1-2"><path class="cls-3" d="m0,135.59c0-1.82.78-3.56,2.13-4.78,25.96-23.48,41.26-41.74,41.26-56.79,0-10.17-5.56-16.27-15.05-16.27-5.39,0-10.12,2.57-14.24,6.15-2.53,2.19-6.34,2.02-8.71-.35l-1.73-1.73c-2.62-2.62-2.49-6.92.28-9.37,7.64-6.75,15.7-10.42,26.97-10.42,18.98,0,31.59,12.2,31.59,30.91,0,14.26-9.27,29.36-22.11,43.84-3.68,4.15-.66,10.68,4.89,10.66.05,0,.09,0,.14,0h15.4c3.55,0,6.43,2.88,6.43,6.43v3.95c0,3.55-2.88,6.43-6.43,6.43H6.43c-3.55,0-6.43-2.88-6.43-6.43v-2.23Z"/><path class="cls-1" d="m132.35,109.39c1.6,0,1.85-.85,2.1-6,1.2.9,3.7,1.85,5.35,2.25-.65,7.25-2.2,9.19-6.9,9.19h-6.25c-5.8,0-7.2-1.8-7.2-7.2v-9.59h-6.7c-.65,9.54-3,14.89-16.19,17.49-.45-1.5-2-3.85-3.15-5.05,11.29-1.85,12.79-5.25,13.24-12.44h-12.34v-5.6h44.53v5.6h-13.34v9.54c0,1.6.3,1.8,2.05,1.8h4.8Zm-31.18-22.99h-5.9v-12.39h18.24c-.5-1.35-1.1-2.7-1.7-3.9l6.1-1.8c1,1.75,2.05,3.85,2.7,5.7h17.24v12.39h-6.25v-6.7h-30.43v6.7Zm2.3,2.4v-5.5h25.84v5.5h-25.84Z"/><path class="cls-1" d="m186.77,86.25c-2.05,6.5-5,12.29-8.6,17.14,1.45,3.6,3.05,5.7,4.65,5.7,1.2,0,1.8-2.5,2.05-8.75,1.35,1.4,3.45,2.7,5.05,3.35-.95,9.25-2.95,11.44-7.6,11.44-3.5,0-6.25-2.5-8.45-6.6-2.55,2.65-5.35,4.9-8.45,6.8-.9-1.3-3.05-3.75-4.3-4.9,3.85-2.1,7.3-4.85,10.2-8.1-1.7-5.65-2.8-12.64-3.45-20.14h-14.49v5.35h12.34s-.05,1.55-.05,2.25c-.15,10.49-.45,14.94-1.6,16.39-.95,1.3-1.95,1.75-3.45,2-1.3.2-3.45.2-5.75.15-.1-1.75-.75-4.05-1.65-5.55,1.8.15,3.5.2,4.3.2.7,0,1.1-.1,1.5-.6.5-.7.7-3.1.85-9.4h-6.5c-.2,7.3-1.25,17.04-5.35,23.14-1.05-1.15-3.7-3.35-5.05-4.05,3.8-6,4.15-14.69,4.15-21.19v-14.59h20.39c-.1-2.45-.2-4.9-.2-7.4h6.25c-.05,2.5,0,4.95.1,7.4h7.65c-1.85-1.5-4.35-3.1-6.4-4.35l3.6-3.55c2.75,1.4,6.4,3.7,8.15,5.35l-2.4,2.55h5.2v5.9h-15.44c.45,5,1.15,9.69,2,13.69,1.95-3.35,3.6-7.05,4.8-11.09l5.95,1.45Z"/><path class="cls-1" d="m203.91,77.11h9.34v4.7h-19.69v-4.7h8.59c-.75-1.9-2.05-4.4-3.2-6.3l4.65-2.15c1.35,2.05,2.9,4.8,3.65,6.65l-3.35,1.8Zm-8.15,6.95h16.14v4.5h-16.14v-4.5Zm0,6.7h16.04v4.5h-16.04v-4.5Zm15.89,22.04h-10.79v2.1h-5.05v-17.24h15.84v15.14Zm-10.79-10.39v5.6h5.7v-5.6h-5.7Zm39.03-23.94h-6.45v29.33c0,3.4-.8,5.1-3.05,6.1-2.25,1-5.65,1.1-10.49,1.1-.3-1.75-1.4-4.6-2.35-6.15,3.35.2,7.3.15,8.35.15,1.05-.05,1.45-.35,1.45-1.3v-29.23h-13.09v-5.8h25.64v5.8Z"/><path class="cls-1" d="m250.89,85.55v29.98h-5.55v-45.08h19.29v15.09h-13.74Zm0-11.29v2h8.15v-2h-8.15Zm8.15,7.55v-2.2h-8.15v2.2h8.15Zm28.58,27.33c0,2.65-.45,4.05-2.05,4.95-1.55.9-3.8,1-6.9,1-.1-.95-.45-2.3-.85-3.45-.7.8-1.7,1.1-3.05,1.1h-3.15c-3.95,0-4.75-1.35-4.75-5.35v-4.1h-2.6c-.7,4.9-2.65,8.2-9.04,10.29-.55-1.2-1.8-3.05-2.8-3.95,5.05-1.25,6.5-3.3,7-6.35h-2.65v-7.9c-.65.4-1.25.75-1.9,1.1-.8-.9-2.4-2.15-3.4-2.8,3.45-1.75,7.25-4.55,8.95-7.15l4.6,1.4c-1.45,2.05-3.5,4-5.75,5.7h14.49c-2-1.65-4.45-3.35-6.55-4.65l3.1-2.4c3.45,2.05,7.9,5.2,10.14,7.45l-3.3,2.65c-.4-.45-.9-.95-1.5-1.45v8.05h-3.9v4.1c0,1.05.05,1.2.7,1.2h1.65c.7,0,.85-.45,1-3.5.9.7,2.9,1.4,4.15,1.65-.15,1.35-.3,2.45-.6,3.2,1.1.05,2.05.05,2.45,0,.6,0,.8-.2.8-.85v-23.49h-13.99v-15.09h19.69v38.63Zm-26.24-9.25h9.4v-2.9h-9.4v2.9Zm12.19-25.59v2h8.35v-2h-8.35Zm8.35,7.55v-2.2h-8.35v2.2h8.35Z"/><path class="cls-2" d="m256.05,0H48.22c-9.7,0-17.56,7.86-17.56,17.56v13.39c0,1.41,1.14,2.55,2.55,2.55h0c1.35,0,2.45-1.1,2.45-2.45v-13.48c0-6.94,5.62-12.56,12.56-12.56h206.62c49.49,0,90.21,40.24,89.33,89.72-.85,47.87-40.05,86.55-88.12,86.55H48.22c-6.94,0-12.56-5.62-12.56-12.56v-13.45c0-1.37-1.11-2.48-2.48-2.48h0c-1.39,0-2.52,1.13-2.52,2.52v13.42c0,9.7,7.86,17.56,17.56,17.56h206.55c52.29,0,95.32-42.52,94.4-94.8-.89-50.58-42.32-91.46-93.12-91.46Z"/></g></svg>