<svg xmlns="http://www.w3.org/2000/svg" id="_圖層_2" viewBox="0 0 351.89 186.26"><defs><style>.cls-1{fill:#fff;}.cls-2{fill:#9fc3d8;}.cls-3{fill:#70c0fc;}</style></defs><g id="_圖層_1-2"><path class="cls-3" d="m1.57,122.61l.85-1.08c2.5-3.2,7.13-3.77,10.32-1.27,6.85,5.37,15.3,8.66,23.76,8.66,11.12,0,18.98-5.42,18.98-13.83s-6.13-14.7-24.98-15.81c-3.87-.23-6.88-3.47-6.88-7.35h0c0-3.81,2.9-7.02,6.7-7.34,16.25-1.33,22.86-7.62,22.86-15.2s-5.83-12.47-17.08-12.47c-7.02,0-14.13,2.32-20.91,7.58-3.07,2.38-7.49,1.85-10.02-1.1l-.72-.84c-2.76-3.23-2.25-8.15,1.17-10.68,9.21-6.84,19.87-10.82,31.16-10.82,21.56,0,35.12,10.58,35.12,26.3,0,11.53-6.24,19.93-17.36,23.46v.54c11.39,2.85,19.93,11.8,19.93,25.36,0,17.63-16.81,28.47-36.75,28.47-15.6,0-27.13-5.41-35.2-12.49-2.94-2.58-3.37-7.01-.95-10.09Z"/><path class="cls-1" d="m119.18,110.22c0,2.55-.5,3.95-2.2,4.8-1.6.85-3.9.95-6.95.95-.3-1.5-1.15-3.7-1.9-5.05,1.85.1,3.85.1,4.5.05.6,0,.8-.2.8-.8v-4.45h-8.79c-.55,3.8-1.7,7.55-3.7,10.39-.9-.95-3.25-2.75-4.45-3.35,3.1-4.5,3.4-10.79,3.4-15.69v-11.44h19.29v24.59Zm22.74-33.38v5.35h-45.23v-5.35h10.64c-.9-1.7-2.35-3.85-3.75-5.5l5.65-1.95c1.8,1.9,3.8,4.6,4.65,6.5l-2.75.95h13.89c1.5-2.3,3.1-5.25,4.1-7.55l6.45,1.9c-1.2,1.95-2.55,3.9-3.8,5.65h10.14Zm-28.48,24.54v-3.25h-8.2c0,1.05-.05,2.1-.15,3.25h8.35Zm-8.2-11.09v3.45h8.2v-3.45h-8.2Zm23.69,16.24h-5.45v-20.39h5.45v20.39Zm4.5-21.79h5.85v24.84c0,2.95-.55,4.4-2.55,5.35-1.9.9-4.6,1.05-8.2,1-.3-1.6-1.25-4.05-2.15-5.6,2.55.1,5.15.1,6,.05.8,0,1.05-.2,1.05-.9v-24.74Z"/><path class="cls-1" d="m152.16,95.98c-1.25,1.25-2.5,2.45-3.75,3.5-.45-1.35-1.95-4.7-2.85-6.15,4.15-3.1,8.79-8,11.49-12.84l5.25,2.1c-1.15,2.05-2.5,4.1-4,6.15v27.43h-6.15v-20.19Zm9.25-24.29c-3.05,4.65-7.8,9.59-12.19,12.64-.7-1.35-2.1-3.8-3.05-5.05,3.6-2.4,7.65-6.45,9.59-9.74l5.65,2.15Zm30.98,37.33v5.65h-31.63v-5.65h13.19v-10.19h-9.94v-5.65h9.94v-8.79h-11.64v-5.65h12.74c-.6-2.1-2.1-5.25-3.5-7.65l5.5-1.85c1.5,2.35,3.25,5.6,3.9,7.75l-4.8,1.75h14.94v5.65h-10.94v8.79h9.44v5.65h-9.44v10.19h12.24Z"/><path class="cls-1" d="m240.26,84.14c-.95,6.9-2.55,13.24-5.1,18.54,2.15,3.35,4.75,6.2,7.9,8.15-1.4,1.15-3.45,3.6-4.45,5.25-2.7-2-5-4.5-6.9-7.55-2.35,3.15-5.2,5.7-8.69,7.55-.6-1.05-1.75-2.45-2.9-3.65v.6h-5.25v-2h-6.6v3h-5v-8.84c-.8,3.5-1.95,6.75-3.5,9.45-.95-1.05-3.35-2.85-4.55-3.45,4.05-7.1,4.4-17.39,4.4-24.69v-13.54c6.15-.65,13.04-1.75,17.19-3.15l4.5,4.3c-4.7,1.4-10.64,2.4-16.19,2.95v2.45h14.89v10.99c3.05-5.2,4.7-12.94,5.55-20.89l5.9.8c-.35,2.8-.8,5.6-1.35,8.25h12.49v5.5h-2.35Zm-20.14,26.24c3.5-1.9,6.25-4.6,8.4-7.85-1.2-2.9-2.25-6.05-3.15-9.39-.65,1.25-1.3,2.4-2.05,3.45-.75-1-2.55-2.8-3.9-3.9h-14.44c-.1,1.15-.15,2.25-.3,3.45h15.44v14.24Zm-14.99-26.14v3.7h9.64v-3.7h-9.64Zm9.74,22.09v-5.45h-6.6v5.45h6.6Zm13.89-22.19c-.05.25-.15.5-.2.7.8,3.95,1.85,7.7,3.3,11.14,1.3-3.5,2.25-7.5,2.95-11.84h-6.05Z"/><path class="cls-1" d="m289.19,109.07c0,3.2-.7,4.8-2.7,5.7-2.05,1-5.1,1.1-9.59,1.05-.2-1.6-1.15-4.15-1.9-5.7,2.8.15,6.1.1,7,.1.95,0,1.3-.3,1.3-1.2v-7.5h-10.54v13.94h-6v-13.94h-10.19c-.9,5.45-2.7,10.94-6.3,14.84-.95-1.1-3.35-3.15-4.7-3.85,5.45-6,5.9-14.89,5.9-21.89v-17.84h37.73v36.28Zm-22.44-13.14v-6.15h-9.4v.9c0,1.6-.05,3.4-.15,5.25h9.54Zm-9.4-17.49v5.8h9.4v-5.8h-9.4Zm25.94,0h-10.54v5.8h10.54v-5.8Zm0,17.49v-6.15h-10.54v6.15h10.54Z"/><path class="cls-2" d="m258.76,0H50.93c-9.7,0-17.56,7.86-17.56,17.56v13.39c0,1.41,1.14,2.55,2.55,2.55h0c1.35,0,2.45-1.1,2.45-2.45v-13.48c0-6.94,5.62-12.56,12.56-12.56h206.62c49.49,0,90.21,40.24,89.33,89.72s-40.05,86.55-88.12,86.55H50.93c-6.94,0-12.56-5.62-12.56-12.56v-13.45c0-1.37-1.11-2.48-2.48-2.48h0c-1.39,0-2.52,1.13-2.52,2.52v13.42c0,9.7,7.86,17.56,17.56,17.56h206.55c52.29,0,95.32-42.52,94.4-94.8-.89-50.58-42.32-91.46-93.12-91.46Z"/></g></svg>