<svg xmlns="http://www.w3.org/2000/svg" id="_圖層_2" viewBox="0 0 356.77 186.26"><defs><style>.cls-1{fill:#fff;}.cls-2{fill:#9fc3d8;}.cls-3{fill:#70c0fc;}</style></defs><g id="_圖層_1-2"><path class="cls-3" d="m76.02,117.47h-2.89c-3.02,0-5.47,2.45-5.47,5.47v15.1c0,3.02-2.45,5.47-5.47,5.47h-7.5c-3.02,0-5.47-2.45-5.47-5.47v-15.1c0-3.02-2.45-5.47-5.47-5.47H5.47c-3.02,0-5.47-2.45-5.47-5.47v-6.53c0-1.11.33-2.18.96-3.1l39.31-57.24c1.02-1.49,2.71-2.37,4.51-2.37h17.41c3.02,0,5.47,2.45,5.47,5.47v48.45c0,3.02,2.45,5.47,5.47,5.47h2.89c3.02,0,5.47,2.45,5.47,5.47v4.39c0,3.02-2.45,5.47-5.47,5.47Zm-32.27-15.32c3.02,0,5.47-2.45,5.47-5.47v-17.99c0-.06,0-.12,0-.18,0-5.51-7.2-7.59-10.12-2.91-.36.59-.7,1.12-1,1.6l-11.15,16.41c-2.47,3.63.13,8.54,4.52,8.54h12.27Z"/><path class="cls-1" d="m146.69,107.07h-19.39v3.55c0,2.95-.9,4.15-3.25,4.9-2.35.65-5.65.6-9.99.6-.4-1.5-1.25-3.5-2.05-4.85,2.9.1,6.8.1,7.65.1,1-.05,1.3-.25,1.3-1v-3.3h-19.24v-5.05h19.24v-2.1h.05l-.05-.05c2.1-.45,4.25-1.1,6.3-1.85h-20.64v-4.65h30.18l1.25-.25,3.8,3.3c-4.05,2.15-8.9,4.1-13.94,5.6h18.79v5.05Zm-.8-28.93h-43.43v-5h18.39c-.3-1.05-.65-2.15-1.05-3l6.15-1.05c.6,1.2,1.2,2.65,1.6,4.05h18.34v5Zm-37.68,13.24v-10.94h32.33v10.94h-32.33Zm5.95-4.1h20.09v-2.8h-20.09v2.8Z"/><path class="cls-1" d="m189.97,94.93c-2.25,4.9-5.55,8.7-9.59,11.64,4.8,1.7,10.39,2.85,16.54,3.4-1.25,1.35-2.85,3.95-3.65,5.55-7.25-.9-13.69-2.6-19.09-5.25-5.75,2.75-12.39,4.4-19.44,5.35-.6-1.4-2.25-4.05-3.5-5.25,6.25-.65,12.04-1.8,16.99-3.65-3.05-2.15-5.7-4.8-7.9-7.85l1.65-.7h-2.35v-5.45h25.24l1.1-.25,4,2.45Zm-31.98-.35h-5.55v-10.84h7.15c-.5-1.55-1.45-3.55-2.35-5.15l4.45-1.25c-2.5.15-5.05.25-7.45.3-.1-1.5-.8-3.75-1.35-5.05,13.14-.45,28.18-1.65,37.28-3.4l4,4.8c-5.4,1-11.84,1.8-18.49,2.4,1,2,1.95,4.65,2.25,6.45l-3.7.9h8.7c1.2-2.3,2.5-5.25,3.25-7.5l6.35,1.5c-1.15,2.1-2.45,4.15-3.6,6h7.1v10.84h-5.8v-5.7h-32.23v5.7Zm17.34-18.19c-4.2.4-8.54.7-12.79.9,1.15,1.85,2.3,4.1,2.8,5.7l-2.6.75h9.54c-.3-1.75-1.05-4.25-1.9-6.2l4.95-1.15Zm-8.7,21.79c2.05,2.25,4.6,4.15,7.6,5.8,2.65-1.6,5-3.5,6.8-5.8h-14.39Z"/><path class="cls-1" d="m244.79,92.88v17.49h-6.5v-1.95h-11.04v7.7h-6.45v-7.7h-10.74v2h-6.2v-17.54h16.94v-3h-14.89v-14.84h14.89v-5.55h6.45v5.55h15.34v14.84h-15.34v3h17.54Zm-23.99,10.24v-4.85h-10.74v4.85h10.74Zm0-18.44v-4.5h-8.75v4.5h8.75Zm6.45-4.5v4.5h8.85v-4.5h-8.85Zm11.04,22.94v-4.85h-11.04v4.85h11.04Z"/><path class="cls-1" d="m260.08,93.53c-1.95-1.7-6.05-4.05-9.25-5.4l3.1-4.55c3.15,1.2,7.4,3.3,9.44,5l-3.3,4.95Zm5.45,6.25c-2.65,5.2-5.8,10.89-8.75,15.74l-5.05-4c2.65-3.75,6.45-9.94,9.45-15.74l4.35,4Zm-3.75-19.59c-1.8-1.85-5.75-4.35-8.95-5.85l3.35-4.35c3.05,1.35,7.15,3.55,9.1,5.45l-3.5,4.75Zm7.65,13.29h5.35v4.85c0,5.55-.8,12.54-7.4,17.59-.85-1.2-2.85-3.1-4.2-3.9,5.6-4.1,6.25-9.54,6.25-13.89v-4.65Zm23.29.2c-.55-.85-1.3-2-2.15-3.2-18.54,1.3-21.24,1.55-23.09,2.25-.3-1.15-1.2-4-1.85-5.45,1.25-.35,2.3-1.4,3.8-3.15.6-.6,1.55-1.8,2.7-3.4h-6.55v-5.3h9.99c1.15-2,2.35-4.1,3.35-6.25l5.8,2.25c-.7,1.35-1.5,2.65-2.35,4h14.19v5.3h-6.9c2.6,3.15,6.1,7.3,7.9,9.89l-4.85,3.05Zm-13.99-12.94c-1.5,2.05-3.05,3.95-4.6,5.75l12.94-.7c-.85-1.05-1.65-2.1-2.4-3l3.5-2.05h-9.44Zm-.9,13.19h5.2v19.99h-5.2v-19.99Zm16.54,16.49c.7,0,1.75-.1,2.4-.3.1,1.4.25,3.25.45,4.5-.75.3-1.8.35-2.8.35h-2.5c-4.7,0-5.6-2-5.6-6.75v-14.74h5.45v14.79c0,1.6.05,2.15.7,2.15h1.9Z"/><path class="cls-2" d="m263.64,0H55.81c-9.7,0-17.56,7.86-17.56,17.56v13.39c0,1.41,1.14,2.55,2.55,2.55h0c1.35,0,2.45-1.1,2.45-2.45v-13.48c0-6.94,5.62-12.56,12.56-12.56h206.62c49.49,0,90.21,40.24,89.33,89.72-.85,47.87-40.05,86.55-88.12,86.55H55.81c-6.94,0-12.56-5.62-12.56-12.56v-13.45c0-1.37-1.11-2.48-2.48-2.48h0c-1.39,0-2.52,1.13-2.52,2.52v13.42c0,9.7,7.86,17.56,17.56,17.56h206.55c52.29,0,95.32-42.52,94.4-94.8-.89-50.58-42.32-91.46-93.12-91.46Z"/></g></svg>