<!-- 會員專屬活動 -->
<svg xmlns="http://www.w3.org/2000/svg" width="40" height="40" viewBox="0 0 40 40" fill="none">
<g clip-path="url(#clip0_315_1849)">
<path d="M34.765 30.9557H25.0646L21.172 25.1167V40H34.765V30.9557Z" fill="#FF6B00"/>
<path d="M18.8282 25.1167L14.9355 30.9557H5.23511V40H18.8282V25.1167Z" fill="#FF6B00"/>
<path d="M13.6812 28.6117L17.8104 22.418H4.69047L0.561279 28.6117H13.6812Z" fill="#FF6B00"/>
<path d="M39.4388 28.6117L35.3095 22.418H22.1897L26.3189 28.6117H39.4388Z" fill="#FF6B00"/>
<path d="M18.8282 16.5586H21.172V18.9023H18.8282V16.5586Z" fill="#FF6B00"/>
<path d="M15.8986 8.9417H18.2423V8.35577C18.2423 7.86319 18.4408 7.4067 18.8011 7.0703C19.161 6.73436 19.6322 6.56795 20.1273 6.60233C20.9947 6.66217 21.6938 7.36123 21.7536 8.22858C21.8032 8.94834 21.4185 9.61819 20.7736 9.93498C19.5918 10.5155 18.8282 11.7499 18.8282 13.0798V14.2151H21.172V13.0798C21.172 12.6368 21.4212 12.228 21.8069 12.0386C23.3104 11.3 24.2072 9.74116 24.0918 8.06725C23.9518 6.03905 22.3168 4.40397 20.2886 4.26413C19.1382 4.18444 18.0419 4.57287 17.2019 5.35694C16.3736 6.13006 15.8986 7.22311 15.8986 8.35577V8.9417Z" fill="#FF6B00"/>
<path d="M11.9916 1.37451L13.8877 -0.00361328L15.9549 2.84053L14.0588 4.21865L11.9916 1.37451Z" fill="#FF6B00"/>
<path d="M8.21362 7.80908L8.93784 5.58018L12.2812 6.6665L11.557 8.89541L8.21362 7.80908Z" fill="#FF6B00"/>
<path d="M8.2135 13.0029L11.5569 11.9166L12.2811 14.1455L8.93772 15.2318L8.2135 13.0029Z" fill="#FF6B00"/>
<path d="M27.7173 14.1479L28.4415 11.919L31.7849 13.0054L31.0606 15.2343L27.7173 14.1479Z" fill="#FF6B00"/>
<path d="M27.7164 6.66602L31.0598 5.57969L31.784 7.80859L28.4406 8.89492L27.7164 6.66602Z" fill="#FF6B00"/>
<path d="M24.051 2.84473L26.1182 0.000585838L28.0143 1.37871L25.9471 4.22285L24.051 2.84473Z" fill="#FF6B00"/>
</g>
<defs>
<clipPath id="clip0_315_1849">
<rect width="40" height="40" fill="white"/>
</clipPath>
</defs>
</svg>