<svg xmlns="http://www.w3.org/2000/svg" width="16" height="16" viewBox="0 0 16 16" fill="none">
<g clip-path="url(#clip0_176_327)">
<path d="M8.00005 0.0333252C3.58179 0.0333252 0 3.61511 0 8.03337C0 11.996 2.88417 15.2778 6.6658 15.9133V9.7024H4.73595V7.46736H6.6658V5.81933C6.6658 3.90714 7.83371 2.86511 9.53976 2.86511C10.3569 2.86511 11.0591 2.92599 11.2629 2.95281V4.95156L10.0796 4.95213C9.15202 4.95213 8.97318 5.39284 8.97318 6.03978V7.46622H11.1866L10.8979 9.70125H8.97318V15.9667C12.9314 15.485 16 12.1196 16 8.03108C16 3.61511 12.4182 0.0333252 8.00005 0.0333252Z" fill="#A6A6A6"/>
</g>
<defs>
<clipPath id="clip0_176_327">
<rect width="16" height="16" fill="white"/>
</clipPath>
</defs>
</svg>