<svg xmlns="http://www.w3.org/2000/svg" width="24" height="24" viewBox="0 0 24 24" fill="none">
<path d="M15.2817 16.2505V17.5006C15.2817 18.8792 14.1602 20.0007 12.7816 20.0007H6.50011C5.12151 20.0007 4 18.8792 4 17.5006V6.50011C4 5.12151 5.12151 4 6.50011 4H12.7816C14.1602 4 15.2817 5.12151 15.2817 6.50011V7.75016C15.2817 8.09539 15.0019 8.37519 14.6567 8.37519C14.3115 8.37519 14.0317 8.09539 14.0317 7.75016V6.50011C14.0317 5.81087 13.4709 5.25005 12.7816 5.25005H6.50011C5.81087 5.25005 5.25005 5.81087 5.25005 6.50011V17.5006C5.25005 18.1898 5.81087 18.7506 6.50011 18.7506H12.7816C13.4709 18.7506 14.0317 18.1898 14.0317 17.5006V16.2505C14.0317 15.9053 14.3115 15.6255 14.6567 15.6255C15.0019 15.6255 15.2817 15.9053 15.2817 16.2505ZM19.543 10.9267L18.1434 9.5271C17.8993 9.28295 17.5035 9.28295 17.2595 9.5271C17.0153 9.77113 17.0153 10.1669 17.2595 10.4109L18.255 11.4066H10.7503C10.4051 11.4066 10.1253 11.6864 10.1253 12.0316C10.1253 12.3768 10.4051 12.6566 10.7503 12.6566H18.255L17.2595 13.6523C17.0153 13.8963 17.0153 14.2921 17.2595 14.5361C17.3816 14.6582 17.5415 14.7192 17.7014 14.7192C17.8614 14.7192 18.0214 14.6582 18.1434 14.5361L19.543 13.1365C20.1523 12.5272 20.1523 11.536 19.543 10.9267Z" fill="white"/>
</svg>