<svg xmlns="http://www.w3.org/2000/svg" width="688" height="130" viewBox="0 0 688 130" fill="none">
<path opacity="0.5" d="M50.72 68.42C58.46 70.58 61.7 75.44 61.7 84.62V128H36.5V84.8C36.5 81.74 35.06 80.3 32 80.3H25.7V128H0.5V1.99999H38.12C53.78 1.99999 61.52 9.74 61.52 25.4V49.7C61.52 60.5 57.56 65.9 50.72 68.42ZM36.32 28.46C36.32 25.4 34.88 23.96 31.82 23.96H25.7V58.88H31.82C34.88 58.88 36.32 57.44 36.32 54.38V28.46ZM70.1094 1.99999H116.909V24.5H95.3094V52.76H116.009V75.26H95.3094V105.5H117.269V128H70.1094V1.99999ZM125.305 128V1.99999H160.765C178.945 1.99999 187.765 10.82 187.765 29V101C187.765 119.18 178.945 128 160.765 128H125.305ZM150.505 23.6V106.4H155.545C160.405 106.4 162.565 104.24 162.565 99.38V30.62C162.565 25.76 160.405 23.6 155.545 23.6H150.505ZM196.32 1.99999H243.12V24.5H221.52V52.76H242.22V75.26H221.52V105.5H243.48V128H196.32V1.99999ZM251.516 1.99999H298.316V24.5H276.716V52.76H297.416V75.26H276.716V105.5H298.676V128H251.516V1.99999ZM343.071 1.99999L350.451 78.14L358.011 1.99999H394.551V128H369.711V45.38L360.171 128H336.411L326.871 44.48V128H306.711V1.99999H343.071ZM465.08 72.38H489.92V105.68C489.92 121.34 482.18 129.08 466.52 129.08H451.04C435.38 129.08 427.64 121.34 427.64 105.68V24.32C427.64 8.65999 435.38 0.919995 451.04 0.919995H466.16C481.82 0.919995 489.56 8.65999 489.56 24.32V53.84H464.72V27.02C464.72 23.96 463.28 22.52 460.22 22.52H457.34C454.28 22.52 452.84 23.96 452.84 27.02V102.98C452.84 106.04 454.28 107.48 457.34 107.48H460.58C463.64 107.48 465.08 106.04 465.08 102.98V72.38ZM560.953 105.68C560.953 121.34 553.213 129.08 537.553 129.08H521.353C505.692 129.08 497.953 121.34 497.953 105.68V24.32C497.953 8.65999 505.692 0.919995 521.353 0.919995H537.553C553.213 0.919995 560.953 8.65999 560.953 24.32V105.68ZM535.753 27.02C535.753 23.96 534.313 22.52 531.253 22.52H527.653C524.593 22.52 523.153 23.96 523.153 27.02V102.98C523.153 106.04 524.593 107.48 527.653 107.48H531.253C534.313 107.48 535.753 106.04 535.753 102.98V27.02ZM569.68 128V1.99999H605.14C623.32 1.99999 632.14 10.82 632.14 29V101C632.14 119.18 623.32 128 605.14 128H569.68ZM594.88 23.6V106.4H599.92C604.78 106.4 606.94 104.24 606.94 99.38V30.62C606.94 25.76 604.78 23.6 599.92 23.6H594.88ZM640.695 1.99999H687.495V24.5H665.895V52.76H686.595V75.26H665.895V105.5H687.855V128H640.695V1.99999Z" fill="white"/>
</svg>