<svg xmlns="http://www.w3.org/2000/svg" width="240" height="59" viewBox="0 0 240 59" fill="none">
<path opacity="0.5" d="M57.66 14.62H14.7V22.84C14.7 32.86 13.74 48.46 8.1 58C6.6 56.56 2.76 54.04 0.78 53.14C5.82 44.56 6.18 31.72 6.18 22.78V6.58H28.56C28.08 5.14 27.6 3.64 27.12 2.38L35.82 0.0999959C36.72 2.02 37.74 4.6 38.46 6.58H57.66V14.62ZM51.48 31.72L57.72 34.18C55.68 38.74 52.92 43.84 50.58 47.26L43.62 44.14C44.46 42.82 45.36 41.2 46.2 39.46H39.78V49.18C39.78 53.32 38.88 55.42 35.7 56.62C32.64 57.76 28.62 57.76 23.52 57.76C23.16 55.36 21.9 52 20.76 49.78C23.82 49.9 28.38 49.96 29.46 49.9C30.6 49.9 30.96 49.72 30.96 48.94V39.46H15.9V32.2H29.4C26.94 30.94 24.36 29.68 22.14 28.72L27.42 23.86C29.58 24.7 32.16 25.84 34.74 27.04C36.3 26.02 37.8 24.76 39.24 23.5H18.3V16.66H46.26L48.18 16.24L53.64 20.56C50.4 23.98 46.26 27.64 41.7 30.52C42.48 30.94 43.2 31.36 43.8 31.72L43.32 32.2H50.16L51.48 31.72ZM76.8 14.68V8.68H70.26V14.68H76.8ZM83.22 2.74V20.68H64.2V2.74H83.22ZM72.3 33.58H82.5C82.5 33.58 82.44 35.44 82.38 36.4C81.78 47.5 81.06 52.48 79.5 54.34C78.24 55.84 76.92 56.38 75.06 56.68C73.56 56.92 71.1 56.98 68.46 56.86C68.34 54.7 67.5 51.76 66.36 49.84C68.46 50.02 70.38 50.08 71.4 50.08C72.24 50.08 72.78 49.96 73.32 49.42C74.04 48.64 74.52 46.06 74.88 40.18H70.86V40.24H63.42C64.2 37.54 64.98 34.06 65.64 30.64H61.5V23.2H84.36V30.64H72.84L72.3 33.58ZM93.36 18.88V27.82C93.36 34.66 92.82 44.02 90.24 51.7C94.62 48.04 95.1 42.52 95.28 35.26H102.36C102.06 45.34 100.92 53.2 93.96 58.06C93.18 56.44 91.44 54.04 89.94 52.66C89.28 54.46 88.5 56.14 87.6 57.64C86.28 56.32 82.92 53.92 81.18 53.14C85.44 45.88 85.8 35.38 85.8 27.76V12.1H97.44V0.699999H105.66V3.46H116.82V10.24H105.66V12.1H112.74L113.88 11.86L119.16 12.94C118.62 17.2 117.78 22.12 117 25.3L110.76 23.8C110.94 22.48 111.12 20.74 111.24 18.88H105.18V20.8L109.62 20.44L110.28 26.02L105.18 26.44C105.3 27.34 105.54 27.82 106.56 27.82H110.46C111.72 27.82 114.06 27.64 115.02 27.34C115.14 29.44 115.26 31.48 115.56 33.4C114.48 33.82 112.44 33.94 110.82 33.94H105C99.66 33.94 98.22 31.6 98.04 27.04L94.74 27.34L94.02 21.7L97.98 21.4V18.88H93.36ZM112.14 49.3H112.62C112.86 49.3 113.1 49.24 113.22 49.06C113.34 48.82 113.46 48.46 113.58 47.98C113.64 47.08 113.76 45.04 113.7 42.64C115.02 43.84 117.6 45.28 119.46 45.88C119.34 48.76 118.98 51.64 118.62 52.9C118.14 54.28 117.54 55.18 116.52 55.9C115.68 56.5 114.36 56.86 113.16 56.86H109.92C108.24 56.86 106.62 56.38 105.6 55.24C104.58 54.04 104.34 52.96 104.34 49.12V35.26H111.42V48.16C111.42 48.46 111.48 48.82 111.54 48.94C111.66 49.18 111.9 49.3 112.14 49.3ZM141.96 23.14V29.86H158.22V23.14H141.96ZM162.42 49.06H168.18C170.16 49.06 170.52 48.22 170.82 42.82C172.56 44.14 176.22 45.46 178.56 46C177.6 54.52 175.32 56.8 168.96 56.8H161.16C152.94 56.8 151.02 54.34 151.02 46.9V37.66H148.86C147.42 47.68 143.52 54.64 126.24 58.36C125.46 56.14 123.36 52.66 121.62 50.86C135.84 48.4 138.66 44.08 139.8 37.66H132.6V19.78C131.04 20.92 129.42 21.88 127.86 22.78C126.24 20.92 122.58 17.5 120.42 15.94C127.86 12.76 135 7.18 138.78 0.999999L148.02 4.18C145.44 8.2 142.02 12.04 138.3 15.34H163.56C159.9 11.8 155.76 8.2 152.1 5.26L159.48 0.759998C165.96 5.68 174.78 12.94 179.04 18.16L170.88 23.44C170.1 22.36 169.14 21.22 168.06 20.02V37.66H159.72V46.78C159.72 48.82 160.08 49.06 162.42 49.06ZM215.1 33.46H223.44C223.38 34.96 223.26 36.34 223.08 37.72H227.82V31.36L226.02 33.58C224.52 32.26 221.76 30.46 219.12 28.9C217.62 30.88 215.94 32.62 214.32 33.94C213.54 33.22 212.1 32.14 210.78 31.3V37.72H214.74C214.92 36.4 214.98 35.02 215.1 33.46ZM219.78 12.22H213.6C212.82 13.36 211.98 14.5 211.02 15.58H217.62C218.4 14.56 219.12 13.42 219.78 12.22ZM210.78 22.42V28.72C212.82 26.98 214.74 24.76 216.18 22.42H210.78ZM227.82 27.58V22.42H223.38C223.02 23.08 222.66 23.74 222.3 24.4C224.16 25.36 226.2 26.5 227.82 27.58ZM238.56 44.56H228.78C232.38 47.26 236.88 50.5 239.28 52.66L233.76 58.12C231.12 55.36 225.3 50.8 221.34 47.62L224.7 44.56H221.64C219.42 50.98 214.38 55.18 202.2 57.7C201.54 55.66 199.56 52.54 198 50.92C206.1 49.6 210.24 47.56 212.4 44.56H200.16V37.72H203.82V21.34C203.04 20.08 201.84 18.58 200.7 17.44V19.66H195.96V26.68L200.64 25.42L201.84 33.16C199.92 33.76 197.94 34.36 195.96 34.96V47.62C195.96 51.52 195.42 53.86 193.38 55.3C191.28 56.74 188.52 57.1 184.68 57.1C184.44 54.76 183.48 50.98 182.46 48.52C184.2 48.58 186.06 48.58 186.78 48.58C187.44 48.58 187.68 48.34 187.68 47.62V37.3L182.88 38.68L181.02 30.34C182.94 29.92 185.22 29.38 187.68 28.78V19.66H182.04V11.68H187.68V0.639996H195.96V11.68H200.7V15.1C205.86 10.96 209.16 5.62 210.9 0.759998L218.82 2.08C218.34 3.28 217.86 4.42 217.32 5.56H224.04L225.24 5.26L230.34 8.56C229.2 10.72 227.58 13.24 225.9 15.58H235.08V37.72H238.56V44.56Z" fill="white"/>
</svg>