<svg xmlns="http://www.w3.org/2000/svg" width="14" height="14" viewBox="0 0 14 14" fill="none">
<path id="sparkle" d="M13.0912 6.66554L11.2739 6.14621C10.4555 5.91548 9.71003 5.47859 9.10878 4.87734C8.50753 4.27609 8.07064 3.5306 7.83991 2.71221L7.32058 0.894876C7.29446 0.831294 7.25003 0.776911 7.19293 0.738639C7.13583 0.700366 7.06865 0.679932 6.99991 0.679932C6.93117 0.679932 6.86399 0.700366 6.80689 0.738639C6.74979 0.776911 6.70536 0.831294 6.67924 0.894876L6.15991 2.71221C5.92918 3.5306 5.49229 4.27609 4.89104 4.87734C4.28979 5.47859 3.5443 5.91548 2.72591 6.14621L0.908576 6.66554C0.838797 6.68535 0.777382 6.72738 0.733651 6.78525C0.68992 6.84312 0.66626 6.91367 0.66626 6.98621C0.66626 7.05875 0.68992 7.1293 0.733651 7.18717C0.777382 7.24504 0.838797 7.28707 0.908576 7.30688L2.72591 7.82621C3.5443 8.05694 4.28979 8.49383 4.89104 9.09508C5.49229 9.69633 5.92918 10.4418 6.15991 11.2602L6.67924 13.0775C6.69905 13.1473 6.74108 13.2087 6.79895 13.2525C6.85682 13.2962 6.92737 13.3199 6.99991 13.3199C7.07245 13.3199 7.143 13.2962 7.20087 13.2525C7.25874 13.2087 7.30077 13.1473 7.32058 13.0775L7.83991 11.2602C8.07064 10.4418 8.50753 9.69633 9.10878 9.09508C9.71003 8.49383 10.4555 8.05694 11.2739 7.82621L13.0912 7.30688C13.161 7.28707 13.2224 7.24504 13.2662 7.18717C13.3099 7.1293 13.3336 7.05875 13.3336 6.98621C13.3336 6.91367 13.3099 6.84312 13.2662 6.78525C13.2224 6.72738 13.161 6.68535 13.0912 6.66554Z" fill="#FF6B00"/>
</svg>