<svg xmlns="http://www.w3.org/2000/svg" width="150" height="36" viewBox="0 0 150 36" fill="none">
<g clip-path="url(#clip0_176_206)">
<path d="M52.706 24.6655V26.1126H50.4758V33.1054H48.8503V26.1126H46.6201V24.6655H52.706Z" fill="white"/>
<path d="M58.7916 33.1004H57.2851V32.6296C56.8043 33.0409 56.2493 33.2193 55.6595 33.2193C54.7922 33.2193 53.9696 32.8327 53.4542 32.2331C52.9982 31.7028 52.7058 30.9792 52.7058 30.1863C52.7058 28.4617 53.9844 27.1384 55.5753 27.1384C56.2394 27.1384 56.8291 27.3565 57.2851 27.7282V27.2574H58.7916V33.1053V33.1004ZM57.2256 29.3042C56.8985 28.868 56.3831 28.5806 55.7785 28.5806C54.8616 28.5806 54.2719 29.3388 54.2719 30.1813C54.2719 31.0982 54.936 31.7722 55.8132 31.7722C56.4029 31.7722 56.9233 31.4847 57.2256 31.0486V29.2992V29.3042Z" fill="white"/>
<path d="M61.3838 24.1848C61.9488 24.1848 62.4096 24.6209 62.4096 25.1859C62.4096 25.7509 61.9537 26.187 61.3838 26.187C60.8139 26.187 60.3579 25.7509 60.3579 25.1859C60.3579 24.6209 60.8139 24.1848 61.3838 24.1848ZM62.1668 33.1054H60.6007V27.2575H62.1668V33.1054Z" fill="white"/>
<path d="M66.7361 33.1004H65.6507L63.1926 27.2524H64.7736L66.1959 30.6621L67.6678 27.2524H68.7531L70.2102 30.6621L71.6424 27.2524H73.2234L70.7652 33.1004H69.6799L68.208 29.7007L66.7361 33.1004Z" fill="white"/>
<path d="M79.671 33.1004H78.1645V32.6296C77.6837 33.0409 77.1287 33.2193 76.5389 33.2193C75.6716 33.2193 74.8539 32.8327 74.3335 32.2331C73.8776 31.7028 73.5852 30.9792 73.5852 30.1863C73.5852 28.4617 74.8638 27.1384 76.4547 27.1384C77.1188 27.1384 77.7085 27.3565 78.1645 27.7282V27.2574H79.671V33.1053V33.1004ZM78.105 29.3042C77.7779 28.868 77.2625 28.5806 76.6579 28.5806C75.741 28.5806 75.1513 29.3388 75.1513 30.1813C75.1513 31.0982 75.8154 31.7722 76.6926 31.7722C77.2823 31.7722 77.8027 31.4847 78.105 31.0486V29.2992V29.3042Z" fill="white"/>
<path d="M81.4797 33.1004V27.2525H82.9863V27.7233C83.4324 27.3615 83.9874 27.1335 84.6366 27.1335C85.4444 27.1335 86.1779 27.4953 86.6636 28.0752C87.0502 28.5311 87.2682 29.1258 87.2682 30.1219V33.1004H85.7022V30.003C85.7022 29.4232 85.5683 29.1209 85.3503 28.9078C85.1471 28.7046 84.8299 28.5807 84.4681 28.5807C83.804 28.5807 83.2639 29.0019 83.0458 29.3042V33.1004H81.4797Z" fill="white"/>
<path d="M96.4863 29.7156L99.559 24.6655H100.704V33.1054H99.0783V28.4023L97.0513 31.7178H95.9164L93.8894 28.4023V33.1054H92.2639V24.6655H93.4087L96.4814 29.7156H96.4863Z" fill="white"/>
<path d="M105.204 27.1335C106.978 27.1335 108.316 28.4964 108.316 30.1814C108.316 31.8664 106.978 33.2194 105.204 33.2194C103.429 33.2194 102.091 31.8714 102.091 30.1814C102.091 28.4915 103.429 27.1335 105.204 27.1335ZM105.204 31.7723C106.12 31.7723 106.745 31.0586 106.745 30.1814C106.745 29.3042 106.12 28.5807 105.204 28.5807C104.287 28.5807 103.662 29.3042 103.662 30.1814C103.662 31.0586 104.287 31.7723 105.204 31.7723Z" fill="white"/>
<path d="M109.639 33.1005V24.5416H111.205V27.6737C111.661 27.312 112.216 27.1336 112.856 27.1336C114.446 27.1336 115.725 28.4617 115.725 30.1814C115.725 30.9793 115.438 31.6979 114.977 32.2282C114.456 32.8328 113.639 33.2144 112.771 33.2144C112.182 33.2144 111.626 33.036 111.146 32.6247V33.0955H109.639V33.1005ZM111.205 31.0537C111.508 31.4898 112.023 31.7772 112.618 31.7772C113.5 31.7772 114.159 31.1032 114.159 30.1864C114.159 29.3439 113.569 28.5856 112.652 28.5856C112.048 28.5856 111.532 28.8731 111.205 29.3092V31.0586V31.0537Z" fill="white"/>
<path d="M117.836 24.1848C118.401 24.1848 118.862 24.6209 118.862 25.1859C118.862 25.7509 118.406 26.187 117.836 26.187C117.266 26.187 116.81 25.7509 116.81 25.1859C116.81 24.6209 117.266 24.1848 117.836 24.1848ZM118.619 33.1054H117.053V27.2575H118.619V33.1054Z" fill="white"/>
<path d="M121.994 33.1005H120.428V24.5416H121.994V33.1005Z" fill="white"/>
<path d="M128.779 32.1736C128.214 32.8476 127.282 33.2243 126.38 33.2243C124.631 33.2243 123.317 32.02 123.317 30.1863C123.317 28.5608 124.428 27.1384 126.162 27.1384C127.778 27.1384 128.923 28.5013 128.923 30.1268C128.923 30.2854 128.913 30.4391 128.888 30.5729H124.839C124.923 31.3906 125.587 31.9605 126.42 31.9605C127.084 31.9605 127.614 31.5888 127.892 31.2865L128.784 32.1786L128.779 32.1736ZM127.322 29.4231C127.272 28.9027 126.801 28.3972 126.167 28.3972C125.533 28.3972 124.988 28.8928 124.913 29.4231H127.322Z" fill="white"/>
<path d="M122.445 10.001V5.39697H112.717V10.001H122.445ZM114.694 7.12658H120.463V8.26643H114.694V7.12658Z" fill="white"/>
<path d="M124.745 10.1993H126.777V4.40582H128.858V2.44824H111.106V4.40582H124.745V10.1993Z" fill="white"/>
<path d="M46.729 20.2746H60.1991C61.8841 20.2746 63.1231 19.2834 63.1231 17.6479V12.3749H46.734V20.2746H46.729ZM48.8848 14.4811H60.9673V17.0582C60.9673 17.9255 60.546 18.1733 59.7283 18.1733H48.8848V14.4861V14.4811Z" fill="white"/>
<path d="M59.7036 5.79344L61.0913 8.2466H48.7115V7.80057C48.7115 6.93329 49.1575 6.36337 49.8265 6.04123L55.0253 3.48895L54.0589 1.50659L48.6619 4.18277C47.0017 5.0005 46.3574 6.23947 46.3574 7.89474V10.4222H62.3204L62.92 11.4878L64.828 10.4966L61.6117 4.8766L59.7036 5.79344Z" fill="white"/>
<path d="M110.165 12.9001H124.75V16.736C124.75 18.8175 123.288 19.2635 121.31 19.2635V21.2954H121.632C124.973 21.2954 126.782 19.7839 126.782 16.7409V12.9051H129.26V10.9971H110.17V12.9051L110.165 12.9001Z" fill="white"/>
<path d="M99.8216 8.53902H107.811V6.30887H99.8117V2.1261H97.532V6.30887H89.7066V8.53902H97.418C96.6994 12.474 95.287 16.5131 89.0872 18.8621L90.1775 20.8941C96.0502 18.6887 97.9037 15.1353 98.7809 11.691C100.094 15.2989 102.805 19.0554 107.26 20.8941L108.45 18.8126C103.058 16.3545 100.649 12.1073 99.8167 8.53902H99.8216Z" fill="white"/>
<path d="M122.445 13.8864H112.519V18.6391H122.445V13.8864ZM120.463 16.9094H114.496V15.6209H120.463V16.9094Z" fill="white"/>
<path d="M141.367 8.53902H149.356V6.30887H141.357V2.1261H139.052V6.30887H131.252V8.53902H138.963C138.245 12.474 136.832 16.5131 130.632 18.8621L131.723 20.8941C137.595 18.6887 139.449 15.1353 140.326 11.691C141.639 15.2989 144.35 19.0554 148.806 20.8941L149.995 18.8126C144.603 16.3545 142.194 12.1073 141.362 8.53902H141.367Z" fill="white"/>
<path d="M69.1 13.8121C69.1 16.7361 68.654 18.4657 66.5229 19.3825L67.7371 21.0428C70.6611 19.9277 71.0774 17.0582 71.0774 13.5395V13.3661H69.0951V13.8121H69.1Z" fill="white"/>
<path d="M67.0186 3.06771L69.9921 6.38816L71.4491 5.02529L68.4805 1.80396L67.0186 3.06771Z" fill="white"/>
<path d="M66.9194 8.21693L69.8434 11.5126L71.355 10.1497L68.4062 6.95813L66.9194 8.21693Z" fill="white"/>
<path d="M74.6308 15.7201H85.5139V11.8099H72.4899V13.3958H83.5068V14.1888H72.9359L72.0686 18.8176L74.0262 19.1397L74.1848 18.2476H84.2601C83.9627 18.9464 82.927 19.3181 79.9683 19.3627V21.1716H80.1913C84.6219 21.1716 86.3317 19.9326 86.3317 17.5092V16.5676H74.4821L74.6308 15.7251V15.7201Z" fill="white"/>
<path d="M76.2661 3.93498V2.48291H78.303V1.68005H79.8988V2.48291H81.9604V3.93498H76.2661Z" fill="white"/>
<path d="M79.8345 10.9873V10.1745H78.3923V10.9873H76.97V8.72241H81.2568V10.9873H79.8345Z" fill="white"/>
<path d="M81.0734 6.65076H77.1582V8.09292H81.0734V6.65076Z" fill="white"/>
<path d="M81.0734 4.57922H77.1582V6.02139H81.0734V4.57922Z" fill="white"/>
<path d="M74.7795 9.47075H73.6694V9.41128C73.6694 9.18826 73.6694 8.85622 73.8775 8.5886L76.5388 5.397L75.4337 4.51981L74.4227 5.69436H73.6644V5.3078C73.6644 5.04018 73.7388 4.82708 73.8973 4.63875L75.3891 2.76047L74.2641 1.86841L72.5047 3.98953C72.1925 4.36122 72.0538 4.75274 72.0538 5.25328V6.90855H73.3819L72.5593 7.86999C72.1925 8.27638 72.0339 8.79179 72.0339 9.54013V10.9873H76.3505V8.1723H74.7795V9.47075Z" fill="white"/>
<path d="M84.6269 9.47075H83.5168V9.41128C83.5168 9.18826 83.5168 8.85622 83.7249 8.5886L86.3863 5.397L85.2811 4.51981L84.2701 5.69436H83.5118V5.3078C83.5118 5.04018 83.5862 4.82708 83.7448 4.63875L85.2365 2.76047L84.1115 1.86841L82.3522 3.98953C82.0399 4.36122 81.9012 4.75274 81.9012 5.25328V6.90855H83.2294L82.4067 7.86999C82.0399 8.27638 81.8813 8.79179 81.8813 9.54013V10.9873H86.1979V8.1723H84.6269V9.47075Z" fill="white"/>
<path d="M29.2893 24.3136L17.519 17.519V31.1131L29.2893 24.3136Z" fill="#D82400"/>
<path d="M5.74878 24.3136L17.519 31.1131V17.519L5.74878 24.3136Z" fill="#F73603"/>
<path d="M35.0381 17.5191L32.689 8.75708L29.2942 10.7246L35.0381 17.5191Z" fill="#DD5298"/>
<path d="M29.2892 24.3136L26.281 32.6891L32.689 26.2761L29.2892 24.3136Z" fill="#3E1EE6"/>
<path d="M32.689 26.2761L35.0381 17.519L29.2893 24.3136L32.689 26.2761Z" fill="#624BEE"/>
<path d="M17.5191 3.92505L5.7439 10.7196L17.5191 17.5191V3.92505Z" fill="#FF8F08"/>
<path d="M29.2893 24.3137V10.7246L17.519 17.5191L29.2893 24.3137Z" fill="#F73603"/>
<path d="M5.74878 10.7246V24.3137L17.519 17.5191L5.74878 10.7246Z" fill="#FF6700"/>
<path d="M17.519 35.0381L26.2761 32.689L17.519 31.113V35.0381Z" fill="#024D59"/>
<path d="M29.2892 10.7246L32.689 8.75709L26.281 2.34912L29.2892 10.7246Z" fill="#FFBA0D"/>
<path d="M29.2893 10.7245L17.519 3.92505V17.5191L29.2893 10.7245Z" fill="#FF6700"/>
<path d="M2.34909 8.75708L0 17.5191L5.74884 10.7246L2.34909 8.75708Z" fill="#FFBA0D"/>
<path d="M17.5191 31.113L8.75708 32.689L17.5191 35.0381V31.113Z" fill="#098979"/>
<path d="M5.74886 10.7246L8.75709 2.34912L2.34912 8.75709L5.74886 10.7246Z" fill="#FFD60B"/>
<path d="M17.5191 0L8.75708 2.34909L17.5191 3.92507V0Z" fill="#FFD60B"/>
<path d="M0 17.519L2.34909 26.2761L5.74884 24.3136L0 17.519Z" fill="#FFBA0D"/>
<path d="M5.74886 24.3136L2.34912 26.2761L8.75709 32.6891L5.74886 24.3136Z" fill="#22DDB9"/>
<path d="M26.2761 2.34909L17.519 0V3.92507L26.2761 2.34909Z" fill="#FFBA0D"/>
<path d="M17.519 31.1131L26.2761 32.6891L29.2893 24.3186L17.519 31.1131Z" fill="#624BEE"/>
<path d="M5.74878 24.3136L8.75701 32.6891L17.519 31.1131L5.74878 24.3136Z" fill="#0EAA7D"/>
<path d="M29.2893 10.7246L26.2811 2.34912L17.519 3.92509L29.2893 10.7246Z" fill="#FF9B0B"/>
<path d="M29.2893 10.7246V24.3137L35.0381 17.5191L29.2893 10.7246Z" fill="#CE2874"/>
<path d="M17.5191 3.9251L8.75708 2.34912L5.7439 10.7196L17.5191 3.9251Z" fill="#FFBA0D"/>
<path d="M5.74884 24.3137V10.7246L0 17.5191L5.74884 24.3137Z" fill="#FF9B0B"/>
</g>
<defs>
<clipPath id="clip0_176_206">
<rect width="150" height="35.0382" fill="white"/>
</clipPath>
</defs>
</svg>