<svg xmlns="http://www.w3.org/2000/svg" width="282" height="40" viewBox="0 0 282 40" fill="none">
<g clip-path="url(#clip0_42_206)">
<path d="M137.742 0H136.215V40H137.742V0Z" fill="white"/>
<path fill-rule="evenodd" clip-rule="evenodd" d="M169.761 34.2479H162.026V23.2178H157.017V34.2479H149.092V5.78325H157.017V16.4013H162.026V5.78325H169.761V34.2479ZM205.232 34.3742C213.157 34.3742 219.624 27.7814 219.624 19.7619C219.624 11.7425 213.157 5.30908 205.232 5.30908C197.307 5.30908 193.155 11.142 192.173 13.517C192.173 9.99901 188.655 5.78532 184.565 5.78532H171.347V34.25H183.646C188.655 34.25 192.173 29.97 192.173 26.2305C193.281 28.5413 197.214 34.3763 205.232 34.3763M182.662 22.8078C183.803 22.8078 184.723 23.9176 184.723 25.1848C184.723 26.4521 183.803 27.624 182.662 27.624H178.732V22.8078H182.662ZM182.662 12.1255C183.803 12.1255 184.723 13.2354 184.723 14.5026C184.723 15.7698 183.803 16.8817 182.662 16.8817H178.732V12.1255H182.662ZM187.86 19.7661C188.779 19.7019 190.268 18.6562 190.84 18.0226C190.618 18.7825 190.618 21.1927 190.84 21.9526C190.204 21.0333 188.779 19.9234 187.86 19.7661ZM198.003 19.7661C198.003 15.7719 201.235 12.5376 205.23 12.5376C209.225 12.5376 212.459 15.7719 212.459 19.7661C212.459 23.7603 209.225 27.0235 205.23 27.0235C201.235 27.0235 198.003 23.7913 198.003 19.7661ZM205.23 25.4706C208.307 25.4706 210.904 22.9362 210.904 19.7661C210.904 16.596 208.307 14.0926 205.23 14.0926C202.153 14.0926 199.525 16.596 199.525 19.7661C199.525 22.9362 202.06 25.4706 205.23 25.4706Z" fill="white"/>
<path d="M265.864 5.19507C258.388 5.19507 252.228 10.8209 251.379 18.068H236.046V23.7249H244.282C243.617 26.4726 241.287 28.1767 238.165 28.1767C233.302 28.1767 230.097 24.7209 230.097 19.563C230.097 15.1154 233.34 11.7858 237.665 11.7858C240.289 11.7858 242.497 13.0758 243.741 15.4073H251.685C250.105 9.70692 244.199 5.54914 237.879 5.54914C229.475 5.54914 223.027 11.7858 223.027 19.855C223.027 27.9241 229.475 34.372 237.711 34.372C244.563 34.372 250.072 30.1562 251.907 24.0335C253.727 30.0175 259.287 34.372 265.864 34.372C273.922 34.372 280.455 27.8413 280.455 19.7825C280.455 11.7237 273.922 5.19507 265.864 5.19507ZM265.864 26.9861C261.886 26.9861 258.66 23.7622 258.66 19.7825C258.66 15.8028 261.886 12.5789 265.864 12.5789C269.842 12.5789 273.068 15.8028 273.068 19.7825C273.068 23.7622 269.844 26.9861 265.864 26.9861Z" fill="url(#paint0_linear_42_206)"/>
<path d="M271.517 19.7846C271.517 22.9299 268.97 25.4767 265.825 25.4767C262.679 25.4767 260.134 22.9299 260.134 19.7846C260.134 16.6394 262.683 14.0925 265.825 14.0925C268.966 14.0925 271.517 16.6414 271.517 19.7846Z" fill="#65B8FC"/>
<path d="M278.914 8.47698C278.914 7.7005 279.503 7.11866 280.254 7.11866C281.006 7.11866 281.578 7.7005 281.578 8.47698C281.578 9.25346 280.996 9.84151 280.254 9.84151C279.513 9.84151 278.914 9.26174 278.914 8.47698ZM280.254 10.1128C281.147 10.1128 281.905 9.42325 281.905 8.47698C281.905 7.53071 281.145 6.84741 280.254 6.84741C279.364 6.84741 278.587 7.53485 278.587 8.47698C278.587 9.41911 279.351 10.1128 280.254 10.1128ZM279.906 8.60743H280.236L280.735 9.42325H281.056L280.517 8.59293C280.795 8.55773 281.008 8.41072 281.008 8.07321C281.008 7.7005 280.787 7.53485 280.341 7.53485H279.621V9.42325H279.906V8.60743ZM279.906 8.36517V7.77919H280.298C280.497 7.77919 280.71 7.82267 280.71 8.05872C280.71 8.35067 280.492 8.36724 280.25 8.36724H279.908L279.906 8.36517Z" fill="black"/>
<mask id="mask0_42_206" style="mask-type:luminance" maskUnits="userSpaceOnUse" x="0" y="5" width="125" height="30">
<path d="M124.118 5.53271H0V34.5212H124.118V5.53271Z" fill="white"/>
</mask>
<g mask="url(#mask0_42_206)">
<path d="M101.316 14.9871H93.2642V18.797H101.316V14.9871ZM94.9022 16.422H99.6755V17.3641H94.9022V16.422Z" fill="white"/>
<path d="M103.221 18.9607H104.9V14.1693H106.621V12.55H91.9326V14.1693H103.221V18.9607Z" fill="white"/>
<mask id="mask1_42_206" style="mask-type:luminance" maskUnits="userSpaceOnUse" x="0" y="5" width="125" height="30">
<path d="M124.118 5.53271H0V34.5212H124.118V5.53271Z" fill="white"/>
</mask>
<g mask="url(#mask1_42_206)">
<path d="M38.6666 27.299H49.8119C51.2055 27.299 52.2285 26.479 52.2285 25.1269V20.7642H38.6666V27.299ZM40.4496 22.5055H50.4476V24.6362C50.4476 25.3526 50.0997 25.5576 49.4225 25.5576H40.4496V22.5055Z" fill="white"/>
<path d="M49.4018 15.3162L50.547 17.3434H40.3046V16.9748C40.3046 16.2584 40.6732 15.7863 41.2261 15.5212L45.5293 13.4113L44.73 11.7734L40.2632 13.9848C38.8902 14.6619 38.358 15.6848 38.358 17.0576V19.1469H51.5658L52.0628 20.029L53.6408 19.209L50.9777 14.5584L49.3997 15.3162H49.4018Z" fill="white"/>
<path d="M91.1539 21.1947H103.221V24.369C103.221 26.0897 102.011 26.4582 100.373 26.4582V28.1375H100.64C103.407 28.1375 104.902 26.8889 104.902 24.369V21.1947H106.95V19.6169H91.1539V21.1947Z" fill="white"/>
<path d="M82.5973 17.5898H89.2074V15.747H82.589V12.2849H80.7045V15.747H74.2311V17.5898H80.6113C80.0191 20.8448 78.8491 24.1847 73.7175 26.1311L74.6183 27.8103C79.4765 25.9841 81.0131 23.0438 81.7379 20.1967C82.823 23.1805 85.0678 26.2905 88.7559 27.8103L89.7396 26.0897C85.2769 24.0542 83.2827 20.5425 82.5973 17.5877" fill="white"/>
<path d="M101.316 22.0146H93.1006V25.9467H101.316V22.0146ZM99.6776 24.5139H94.7407V23.4496H99.6776V24.5139Z" fill="white"/>
<path d="M116.975 17.5898H123.585V15.747H116.967V12.2849H115.062V15.747H108.609V17.5898H114.989C114.397 20.8448 113.227 24.1847 108.095 26.1311L108.996 27.8103C113.854 25.9841 115.391 23.0438 116.116 20.1967C117.201 23.1805 119.446 26.2905 123.134 27.8103L124.118 26.0897C119.655 24.0542 117.661 20.5425 116.975 17.5877" fill="white"/>
<path d="M57.1757 21.9526C57.1757 24.369 56.8071 25.8039 55.0448 26.5617L56.0492 27.9345C58.4658 27.0131 58.8158 24.6361 58.8158 21.7269V21.584H57.1778V21.9526H57.1757Z" fill="white"/>
<path d="M55.4548 13.0614L57.9129 15.807L59.1223 14.6806L56.6642 12.0178L55.4548 13.0614Z" fill="white"/>
<path d="M55.3741 17.3228L57.7908 20.0477L59.0395 18.9213L56.6021 16.2771L55.3741 17.3228Z" fill="white"/>
<path d="M61.7523 23.5305H70.7583V20.2942H59.9817V21.6049H69.0975V22.2592H60.3503L59.6338 26.0898L61.2532 26.3569L61.3836 25.6198H69.7208C69.4744 26.1996 68.6171 26.506 66.1714 26.5412V28.0362H66.3557C70.0232 28.0362 71.4375 27.0112 71.4375 25.0048V24.2263H61.6321L61.7543 23.5305H61.7523Z" fill="white"/>
<path d="M63.1086 13.7799V12.579H64.7902V11.9143H66.1134V12.579H67.8157V13.7799H63.1086Z" fill="white"/>
<path d="M66.0575 19.6129V18.942H64.8668V19.6129H63.6906V17.739H67.2338V19.6129H66.0575Z" fill="white"/>
<path d="M67.0806 16.0266H63.8418V17.2214H67.0806V16.0266Z" fill="white"/>
<path d="M67.0806 14.312H63.8418V15.5068H67.0806V14.312Z" fill="white"/>
<path d="M61.8766 18.3601H60.9592V18.3083C60.9592 18.1261 60.9592 17.8486 61.1331 17.6271L63.3344 14.985L62.4191 14.2603L61.5846 15.2314H60.9592V14.9104C60.9592 14.691 61.0213 14.515 61.1518 14.3576L62.3839 12.8026L61.452 12.0654L59.9983 13.8234C59.7395 14.1298 59.6235 14.4528 59.6235 14.8711V16.2398H60.721L60.0377 17.0328C59.7353 17.3703 59.6007 17.7969 59.6007 18.416V19.6149H63.1729V17.2875H61.8745V18.3621L61.8766 18.3601Z" fill="white"/>
<path d="M70.0232 18.3601H69.1058V18.3083C69.1058 18.1261 69.1058 17.8486 69.2797 17.6271L71.481 14.985L70.5657 14.2603L69.7312 15.2314H69.1058V14.9104C69.1058 14.691 69.1679 14.515 69.2984 14.3576L70.5305 12.8026L69.5986 12.0654L68.1449 13.8234C67.8861 14.1298 67.7701 14.4528 67.7701 14.8711V16.2398H68.8676L68.1843 17.0328C67.8819 17.3703 67.7473 17.7969 67.7473 18.416V19.6149H71.3195V17.2875H70.0211V18.3621L70.0232 18.3601Z" fill="white"/>
<path d="M24.2371 25.6506L14.4958 20.0269V31.2744L24.2371 25.6506Z" fill="#D82400"/>
<path d="M4.75464 25.6506L14.4958 31.2744V20.0269L4.75464 25.6506Z" fill="#F73603"/>
<path d="M28.9917 20.0269L27.0493 12.7798L24.2371 14.4031L28.9917 20.0269Z" fill="#DD5298"/>
<path d="M24.2371 25.6506L21.7438 32.5789L27.0493 27.274L24.2371 25.6506Z" fill="#3E1EE6"/>
<path d="M27.0493 27.274L28.9917 20.0269L24.2371 25.6506L27.0493 27.274Z" fill="#624BEE"/>
<path d="M14.4958 8.77954L4.75464 14.4033L14.4958 20.0271V8.77954Z" fill="#FF8F08"/>
<path d="M24.2371 25.6506V14.4031L14.4958 20.0268L24.2371 25.6506Z" fill="#F73603"/>
<path d="M4.75464 14.4031V25.6506L14.4958 20.0268L4.75464 14.4031Z" fill="#FF6700"/>
<path d="M14.4958 34.5211L21.7438 32.5789L14.4958 31.2744V34.5211Z" fill="#024D59"/>
<path d="M24.2371 14.4031L27.0493 12.7798L21.7438 7.47485L24.2371 14.4031Z" fill="#FFBA0D"/>
<path d="M24.2371 14.4032L14.4958 8.78149V20.027L24.2371 14.4032Z" fill="#FF6700"/>
<path d="M1.94244 12.7798L0 20.0269L4.75464 14.4031L1.94244 12.7798Z" fill="#FFBA0D"/>
<path d="M14.4958 31.2744L7.24792 32.5789L14.4958 34.5211V31.2744Z" fill="#098979"/>
<path d="M4.75458 14.4031L7.24786 7.47485L1.94238 12.7798L4.75458 14.4031Z" fill="#FFD60B"/>
<path d="M14.4958 5.53271L7.24792 7.47494L14.4958 8.77943V5.53271Z" fill="#FFD60B"/>
<path d="M0 20.0269L1.94244 27.274L4.75464 25.6506L0 20.0269Z" fill="#FFBA0D"/>
<path d="M4.75458 25.6506L1.94238 27.274L7.24786 32.5789L4.75458 25.6506Z" fill="#22DDB9"/>
<path d="M21.7438 7.47494L14.4958 5.53271V8.77943L21.7438 7.47494Z" fill="#FFBA0D"/>
<path d="M14.4958 31.2744L21.7438 32.5789L24.2371 25.6506L14.4958 31.2744Z" fill="#624BEE"/>
<path d="M4.75464 25.6506L7.24792 32.5789L14.4958 31.2744L4.75464 25.6506Z" fill="#0EAA7D"/>
<path d="M24.2371 14.4031L21.7438 7.47485L14.4958 8.78141L24.2371 14.4031Z" fill="#FF9B0B"/>
<path d="M24.2371 14.4031V25.6506L28.9917 20.0268L24.2371 14.4031Z" fill="#CE2874"/>
<path d="M14.4958 8.77934L7.24792 7.47485L4.75464 14.4031L14.4958 8.77934Z" fill="#FFBA0D"/>
<path d="M4.75464 25.6506V14.4031L0 20.0268L4.75464 25.6506Z" fill="#FF9B0B"/>
</g>
</g>
</g>
<defs>
<linearGradient id="paint0_linear_42_206" x1="223.027" y1="19.7846" x2="280.453" y2="19.7846" gradientUnits="userSpaceOnUse">
<stop stop-color="#7496A8"/>
<stop offset="1" stop-color="#B8E2FF"/>
</linearGradient>
<clipPath id="clip0_42_206">
<rect width="281.905" height="40" fill="white"/>
</clipPath>
</defs>
</svg>