<svg xmlns="http://www.w3.org/2000/svg" width="48" height="48" viewBox="0 0 48 48" fill="none">
<path d="M35.3137 12.6863C32.2917 9.66431 28.2737 8 24 8C19.7263 8 15.7083 9.66431 12.6863 12.6863C9.66431 15.7083 8 19.7263 8 24C8 28.2737 9.66431 32.2917 12.6863 35.3137C15.7083 38.3357 19.7263 40 24 40C28.2737 40 32.2917 38.3357 35.3137 35.3137C38.3357 32.2917 40 28.2737 40 24C40 19.7263 38.3357 15.7083 35.3137 12.6863ZM24 38.125C19.8207 38.125 16.0602 36.2999 13.4717 33.4056C15.0764 29.1514 19.1842 26.125 24 26.125C20.8934 26.125 18.375 23.6066 18.375 20.5C18.375 17.3934 20.8934 14.875 24 14.875C27.1066 14.875 29.625 17.3934 29.625 20.5C29.625 23.6066 27.1066 26.125 24 26.125C28.8158 26.125 32.9236 29.1514 34.5282 33.4056C31.9398 36.2999 28.1793 38.125 24 38.125Z" fill="white"/>
</svg>